<?xml version="1.0" encoding="utf-8"?>
<!-- Generator: Adobe Illustrator 16.0.0, SVG Export Plug-In . SVG Version: 6.00 Build 0)  -->
<!DOCTYPE svg PUBLIC "-//W3C//DTD SVG 1.1//EN" "http://www.w3.org/Graphics/SVG/1.1/DTD/svg11.dtd">
<svg version="1.1" id="Layer_1" xmlns="http://www.w3.org/2000/svg" xmlns:xlink="http://www.w3.org/1999/xlink" x="0px" y="0px"
	 width="305px" height="97px" viewBox="0 0 305 97" enable-background="new 0 0 305 97" xml:space="preserve">
<path fill="none" stroke="#149AD6" stroke-linejoin="round" stroke-miterlimit="8" stroke-dasharray="2,2" d="M79.423,16.8
	c17.574,17.574,17.574,46.066,0,63.639c-17.573,17.574-46.066,17.574-63.639,0C-1.79,62.866-1.79,34.374,15.784,16.8
	C33.357-0.773,61.85-0.773,79.423,16.8"/>
<g>
	<defs>
		<rect id="SVGID_1_" x="34.519" y="31" width="27" height="36"/>
	</defs>
	<clipPath id="SVGID_2_">
		<use xlink:href="#SVGID_1_"  overflow="visible"/>
	</clipPath>
	<g clip-path="url(#SVGID_2_)">
		<defs>
			<rect id="SVGID_3_" x="34.519" y="31" width="27" height="36"/>
		</defs>
		<clipPath id="SVGID_4_">
			<use xlink:href="#SVGID_3_"  overflow="visible"/>
		</clipPath>
		<path clip-path="url(#SVGID_4_)" fill="#149AD6" d="M59.616,47.826h-2.755v-7.509c0-0.827-0.122-2.972-1.245-5.023
			C54.543,33.335,52.295,31,47.684,31s-6.859,2.335-7.933,4.294c-1.124,2.051-1.246,4.196-1.246,5.023v7.509h-2.083
			c-1.051,0-1.903,0.861-1.903,1.924v15.324c0,1.063,0.852,1.925,1.903,1.925h23.194c1.051,0,1.903-0.861,1.903-1.925V49.751
			C61.519,48.688,60.667,47.826,59.616,47.826 M42.19,40.317c0-1.682,0.535-5.59,5.494-5.59c4.958,0,5.494,3.909,5.494,5.589v7.51
			H42.19V40.317z M45.039,63.329l-3.918-4.464l2.234-1.989l1.719,1.975l7.651-7.354l2.192,2.592L45.039,63.329z"/>
	</g>
</g>
<path fill="none" stroke="#149AD6" stroke-linejoin="round" stroke-miterlimit="8" stroke-dasharray="2,2" d="M183.423,16.8
	c17.574,17.574,17.574,46.066,0,63.639c-17.573,17.574-46.066,17.574-63.639,0c-17.574-17.573-17.574-46.065,0-63.639
	C137.357-0.773,165.85-0.773,183.423,16.8"/>
<g>
	<defs>
		<rect id="SVGID_5_" x="126.519" y="34" width="49" height="30"/>
	</defs>
	<clipPath id="SVGID_6_">
		<use xlink:href="#SVGID_5_"  overflow="visible"/>
	</clipPath>
	<g clip-path="url(#SVGID_6_)">
		<defs>
			<rect id="SVGID_7_" x="126.519" y="34" width="49" height="30"/>
		</defs>
		<clipPath id="SVGID_8_">
			<use xlink:href="#SVGID_7_"  overflow="visible"/>
		</clipPath>
		<path clip-path="url(#SVGID_8_)" fill="#149AD6" d="M166.911,46.472c-1.368,0-2.657,0.334-3.807,0.913l-2.594-4.083l0.95-2.224
			h0.153c0.73,0,1.324-0.604,1.324-1.348c0-0.745-0.594-1.349-1.324-1.349h-6.622c-0.73,0-1.324,0.604-1.324,1.349
			c0,0.744,0.594,1.348,1.324,1.348h4.301l-0.432,1.011h-14.696c0.261-1.863-1.179-2.881-1.911-3.396
			c-0.188-0.131-0.379-0.267-0.464-0.353c-0.466-0.474-0.472-1.195-0.281-1.666c0.121-0.297,0.376-0.652,0.903-0.652h4.635
			c0.549,0,0.994-0.452,0.994-1.011S147.595,34,147.046,34h-4.635c-1.23,0-2.253,0.711-2.738,1.901
			c-0.542,1.332-0.255,2.887,0.711,3.871c0.214,0.216,0.469,0.396,0.741,0.587c0.975,0.686,1.234,1.003,1.016,1.71l-2.61,5.647
			c-1.29-0.785-2.793-1.245-4.405-1.245c-4.754,0-8.608,3.924-8.608,8.765c0,4.84,3.854,8.764,8.608,8.764
			c4.754,0,8.608-3.924,8.608-8.764c0-2.455-0.993-4.67-2.59-6.261l0.586-1.266l11.263,8.345c0.133,0.097,0.278,0.145,0.429,0.169
			c0.015,0.004,0.033,0.005,0.05,0.008c0.035,0.003,0.07,0.017,0.104,0.017c0.011,0,0.019-0.003,0.027-0.003
			c0.011,0,0.02,0.003,0.03,0.003h0.695h4.035c0.493,4.364,4.128,7.753,8.546,7.753c4.755,0,8.608-3.924,8.608-8.764
			C175.519,50.396,171.666,46.472,166.911,46.472 M142.411,55.236c0,4.095-3.261,7.415-7.284,7.415c-4.022,0-7.284-3.32-7.284-7.415
			c0-4.096,3.261-7.416,7.284-7.416c1.411,0,2.722,0.415,3.838,1.122l-0.593,1.284c-1.103,2.405-1.333,2.906-3.689,4.105
			c-0.49,0.25-0.689,0.857-0.444,1.357c0.174,0.354,0.524,0.559,0.889,0.559c0.149,0,0.301-0.034,0.443-0.106
			c2.975-1.514,3.417-2.479,4.6-5.059l0.368-0.797C141.699,51.599,142.411,53.331,142.411,55.236 M162.16,49.622l2.925,4.603h-5.383
			C159.948,52.392,160.849,50.774,162.16,49.622 M153.733,54.098l-11.143-8.253l0.801-1.732h14.605L153.733,54.098z M155.845,54.225
			l3.713-8.695l1.873,2.948c-1.67,1.405-2.807,3.44-3.067,5.747H155.845z M166.911,62.651c-3.684,0-6.722-2.789-7.209-6.404h7.209
			c0.549,0,0.993-0.453,0.993-1.011c0-0.2-0.059-0.385-0.156-0.542l-0.002-0.007l-3.916-6.164c0.936-0.447,1.979-0.704,3.081-0.704
			c4.023,0,7.284,3.32,7.284,7.416C174.195,59.331,170.934,62.651,166.911,62.651"/>
	</g>
</g>
<path fill="none" stroke="#149AD6" stroke-linejoin="round" stroke-miterlimit="8" stroke-dasharray="2,2" d="M286.423,16.8
	c17.574,17.574,17.574,46.066,0,63.639c-17.573,17.574-46.065,17.574-63.64,0c-17.573-17.573-17.573-46.065,0-63.639
	C240.358-0.773,268.85-0.773,286.423,16.8"/>
<g>
	<defs>
		<rect id="SVGID_9_" x="238.519" y="30" width="29" height="35"/>
	</defs>
	<clipPath id="SVGID_10_">
		<use xlink:href="#SVGID_9_"  overflow="visible"/>
	</clipPath>
	<g clip-path="url(#SVGID_10_)">
		<defs>
			<rect id="SVGID_11_" x="238.519" y="30" width="29" height="35"/>
		</defs>
		<clipPath id="SVGID_12_">
			<use xlink:href="#SVGID_11_"  overflow="visible"/>
		</clipPath>
		<path clip-path="url(#SVGID_12_)" fill="#149AD6" d="M266.161,62.284h-4.022c-0.128-0.894-0.297-2.015-0.526-3.46
			c-0.508-3.213-1.253-7.848-2.247-13.913v-8.193h1.47L252.818,30l-7.604,6.718h1.51v8.349h0.051
			c-1.528,8.554-2.494,14.287-2.893,17.218h-4.003c-0.756,0-1.359,0.606-1.359,1.362c0,0.748,0.604,1.354,1.359,1.354h26.282
			c0.751,0,1.358-0.605,1.358-1.354C267.519,62.891,266.911,62.284,266.161,62.284 M259.434,59.312l-4.933-5.56l3.286-3.71
			L259.434,59.312z M253.125,52.55l-4.443-4.932l0.335-2.237l7.97-0.019l0.385,2.352L253.125,52.55z M248.544,36.736h8.954v2.816
			h-8.954V36.736z M248.151,49.609l3.834,4.253l-5.807,6.439L248.151,49.609z M246.582,62.284l6.516-7.078l6.42,7.078H246.582z"/>
	</g>
</g>
</svg>
