<?xml version="1.0" encoding="UTF-8" standalone="no"?>
<!-- Generator: Adobe Illustrator 16.0.0, SVG Export Plug-In . SVG Version: 6.00 Build 0)  -->

<svg
   xmlns:dc="http://purl.org/dc/elements/1.1/"
   xmlns:cc="http://creativecommons.org/ns#"
   xmlns:rdf="http://www.w3.org/1999/02/22-rdf-syntax-ns#"
   xmlns:svg="http://www.w3.org/2000/svg"
   xmlns="http://www.w3.org/2000/svg"
   xmlns:xlink="http://www.w3.org/1999/xlink"
   xmlns:sodipodi="http://sodipodi.sourceforge.net/DTD/sodipodi-0.dtd"
   xmlns:inkscape="http://www.inkscape.org/namespaces/inkscape"
   version="1.1"
   id="Layer_1"
   x="0px"
   y="0px"
   width="91"
   height="90.999252"
   viewBox="0 0 91 90.999252"
   enable-background="new 0 0 305 97"
   xml:space="preserve"
   inkscape:version="0.48.2 r9819"
   sodipodi:docname="mitro_value_prop2.svg"><metadata
   id="metadata3171"><rdf:RDF><cc:Work
       rdf:about=""><dc:format>image/svg+xml</dc:format><dc:type
         rdf:resource="http://purl.org/dc/dcmitype/StillImage" /><dc:title></dc:title></cc:Work></rdf:RDF></metadata><defs
   id="defs3169" /><sodipodi:namedview
   pagecolor="#ffffff"
   bordercolor="#666666"
   borderopacity="1"
   objecttolerance="10"
   gridtolerance="10"
   guidetolerance="10"
   inkscape:pageopacity="0"
   inkscape:pageshadow="2"
   inkscape:window-width="1224"
   inkscape:window-height="1015"
   id="namedview3167"
   showgrid="false"
   inkscape:zoom="3.5803279"
   inkscape:cx="195.59597"
   inkscape:cy="61.010763"
   inkscape:window-x="1696"
   inkscape:window-y="75"
   inkscape:window-maximized="0"
   inkscape:current-layer="Layer_1"
   fit-margin-top="0"
   fit-margin-left="0"
   fit-margin-right="0"
   fit-margin-bottom="0" />
<path
   stroke-miterlimit="8"
   d="m 77.3195,13.67975 c 17.574,17.574 17.574,46.066 0,63.639 -17.573,17.574 -46.066,17.574 -63.639,0 -17.574,-17.573 -17.574,-46.065 0,-63.639 17.573,-17.573 46.066,-17.573 63.639,0"
   id="path3107"
   inkscape:connector-curvature="0"
   style="fill:none;stroke:#149ad6;stroke-linejoin:round;stroke-miterlimit:8;stroke-dasharray:2, 2" />
<g
   id="g3109"
   transform="translate(-2.1035,-3.12025)">
	<defs
   id="defs3111">
		<rect
   id="SVGID_1_"
   x="34.519001"
   y="31"
   width="27"
   height="36" />
	</defs>
	<clipPath
   id="SVGID_2_">
		<use
   xlink:href="#SVGID_1_"
   overflow="visible"
   id="use3115"
   style="overflow:visible"
   x="0"
   y="0"
   width="305"
   height="97" />
	</clipPath>
	<g
   clip-path="url(#SVGID_2_)"
   id="g3117">
		<defs
   id="defs3119">
			<rect
   id="SVGID_3_"
   x="34.519001"
   y="31"
   width="27"
   height="36" />
		</defs>
		<clipPath
   id="SVGID_4_">
			<use
   xlink:href="#SVGID_3_"
   overflow="visible"
   id="use3123"
   style="overflow:visible"
   x="0"
   y="0"
   width="305"
   height="97" />
		</clipPath>
		<path
   clip-path="url(#SVGID_4_)"
   d="m 59.616,47.826 h -2.755 v -7.509 c 0,-0.827 -0.122,-2.972 -1.245,-5.023 C 54.543,33.335 52.295,31 47.684,31 c -4.611,0 -6.859,2.335 -7.933,4.294 -1.124,2.051 -1.246,4.196 -1.246,5.023 v 7.509 h -2.083 c -1.051,0 -1.903,0.861 -1.903,1.924 v 15.324 c 0,1.063 0.852,1.925 1.903,1.925 h 23.194 c 1.051,0 1.903,-0.861 1.903,-1.925 V 49.751 c 0,-1.063 -0.852,-1.925 -1.903,-1.925 M 42.19,40.317 c 0,-1.682 0.535,-5.59 5.494,-5.59 4.958,0 5.494,3.909 5.494,5.589 v 7.51 H 42.19 v -7.509 z m 2.849,23.012 -3.918,-4.464 2.234,-1.989 1.719,1.975 7.651,-7.354 2.192,2.592 -9.878,9.24 z"
   id="path3125"
   inkscape:connector-curvature="0"
   style="fill:#149ad6" />
	</g>
</g>




</svg>